<?xml version="1.0" encoding="utf-8"?>
<!-- Generator: Adobe Illustrator 18.0.0, SVG Export Plug-In . SVG Version: 6.00 Build 0)  -->
<!DOCTYPE svg PUBLIC "-//W3C//DTD SVG 1.1//EN" "http://www.w3.org/Graphics/SVG/1.1/DTD/svg11.dtd">
<svg version="1.1" id="Layer_1" xmlns="http://www.w3.org/2000/svg" xmlns:xlink="http://www.w3.org/1999/xlink" x="0px" y="0px"
	 viewBox="0 0 612 792" enable-background="new 0 0 612 792" xml:space="preserve">
<g>
	<circle fill="#181818" cx="301" cy="396" r="120"/>
	<circle fill="#181818" cx="375.8" cy="454.2" r="60"/>
	<g>
		<g>
			<path fill="#303030" d="M339.2,390.5c30.2,0,42.7-33.2,46-47.5c0.8-3.3,0-6.7-2.1-9.3c-2.1-2.7-5.3-4.2-8.7-4.2l-16.5-0.1
				l-1.3,12.4h16.3c-3,12.1-12.1,36.3-29.9,36.3L339.2,390.5z"/>
		</g>
		<g>
			<path fill="#303030" d="M258.2,390.5c-30.2,0-42.7-33.2-46-47.5c-0.8-3.3,0-6.7,2.1-9.3c2.1-2.7,5.3-4.2,8.7-4.2l16.5-0.1
				l1.3,12.4h-16.3c3,12.1,12.1,36.3,29.9,36.3L258.2,390.5z"/>
		</g>
	</g>
	<path fill="#181818" d="M296.8,304.6h-60.6c-3.1,0-5.4,2.8-4.8,5.9c4.9,25.7,26.7,127.2,65.5,127.2s60.6-101.5,65.5-127.2
		c0.6-3-1.7-5.9-4.8-5.9H296.8z"/>
	<g>
		<path fill="#303030" d="M333.4,454.3c-16.8,0-22.1-21.9-22.1-21.9h-25.2c0,0-5.2,21.9-22.1,21.9H333.4z"/>
	</g>
	<path fill="#181818" d="M304.2,310.8h-60.6c-3.1,0-5.4,2.8-4.8,5.9c4.9,25.7,26.7,127.2,65.5,127.2c8.1,0,15.5-4.5,22.1-11.8
		c1.4-1.5-16.2-15.8-14.9-17.6c22.5-29.9,38-77.3,41.7-96.5c0.6-3,14.8-7.2,11.8-7.2H304.2z"/>
	<polygon fill="#181818" points="363.1,328.8 361.6,342.6 354.5,341.6 357.3,328.8 	"/>
	<polygon fill="#181818" points="349.8,376.6 346.6,390.9 338.7,391.3 343.7,377.3 	"/>
	<path fill="#303030" d="M299.1,304h-60.6c-3.1,0-5.4,2.8-4.8,5.9c4.9,25.7,26.7,127.2,65.5,127.2s60.6-101.5,65.5-127.2
		c0.6-3-1.7-5.9-4.8-5.9H299.1z"/>
	<path fill="#1D1D1D" d="M353.5,319.1c-3.3,0-6.1,2.3-6.8,5.5c-7.5,35.5-18,67.9-30.5,87.2c-6.6,10.2-0.5,14.7,6.3,4.4
		c12.8-19,25.2-53.7,34-97.1H353.5z"/>
	<rect x="262.7" y="456.5" fill="#303030" width="72.1" height="19.4"/>
	<rect x="259.5" y="478.4" fill="#303030" width="78.5" height="3.7"/>
	<polygon fill="#181818" points="372.7,314.2 229.2,311.5 229.2,308.7 372.7,308.7 	"/>
	<g>
		<path fill="#FEC40D" d="M301.2,339.9l3.2,6.6c0.4,0.8,1.2,1.4,2.1,1.5l7.3,1.1c2.3,0.3,3.2,3.1,1.5,4.7l-5.3,5.1
			c-0.6,0.6-0.9,1.5-0.8,2.4l1.2,7.2c0.4,2.2-2,4-4,2.9L300,368c-0.8-0.4-1.8-0.4-2.6,0l-6.5,3.4c-2,1.1-4.4-0.7-4-2.9l1.2-7.2
			c0.2-0.9-0.1-1.8-0.8-2.4l-5.3-5.1c-1.6-1.6-0.7-4.4,1.5-4.7l7.3-1.1c0.9-0.1,1.7-0.7,2.1-1.5l3.2-6.6
			C297.3,337.9,300.2,337.9,301.2,339.9z"/>
	</g>
	<path fill="#303030" d="M292.2,362c0.4-2.2-0.3-4.4-1.9-6l-3.4-3.4l4.8-0.7c2.2-0.3,4.1-1.7,5.1-3.7l2.1-4.3l2.1,4.3
		c1,2,2.9,3.4,5.1,3.7l4.8,0.7l-3.4,3.4c-1.6,1.6-2.3,3.8-1.9,6l0.8,4.7l-4.3-2.2c-1-0.5-2.1-0.8-3.1-0.8c-1.1,0-2.2,0.3-3.1,0.8
		l-4.3,2.2L292.2,362z"/>
	<g>
		<path fill="#303030" d="M227.6,406.8l6.2,6.7c0.8,0.8,1.9,1.2,3,1.1l9-1.3c2.8-0.4,4.8,2.6,3.5,5l-4.4,7.9c-0.5,1-0.6,2.2-0.1,3.2
			l4,8.1c1.3,2.5-0.9,5.4-3.7,4.9l-8.9-1.8c-1.1-0.2-2.2,0.1-3,0.9l-6.5,6.3c-2,2-5.4,0.8-5.8-2l-1.1-9c-0.1-1.1-0.8-2.1-1.8-2.6
			l-8-4.2c-2.5-1.3-2.4-4.9,0.2-6.1l8.2-3.8c1-0.5,1.7-1.4,1.9-2.5l1.5-9C222.2,405.8,225.7,404.8,227.6,406.8z"/>
		<path fill="#181818" d="M224.6,436.2c-0.3-2.7-2-5.1-4.4-6.4l-5.3-2.8l5.4-2.5c2.5-1.2,4.3-3.5,4.7-6.2l1-5.9l4,4.4
			c1.9,2,4.6,3,7.3,2.6l5.9-0.9l-2.9,5.2c-1.3,2.4-1.4,5.3-0.2,7.8l2.6,5.3l-5.8-1.2c-1.3-0.3-2.7-0.2-4,0.2c-1.3,0.4-2.5,1.1-3.5,2
			l-4.3,4.2L224.6,436.2z"/>
	</g>
	<g>
		<path fill="#303030" d="M394.8,447.8l2.7,7.1c0.3,0.9,1.1,1.5,2,1.8l7.4,1.8c2.3,0.6,2.9,3.5,1.1,5l-5.9,4.8
			c-0.7,0.6-1.1,1.5-1.1,2.4l0.5,7.6c0.2,2.4-2.4,3.9-4.4,2.6l-6.4-4.2c-0.8-0.5-1.8-0.6-2.6-0.3l-7.1,2.9c-2.2,0.9-4.5-1.1-3.8-3.4
			l2-7.3c0.2-0.9,0-1.9-0.6-2.6l-4.9-5.8c-1.5-1.8-0.3-4.6,2.1-4.7l7.6-0.4c0.9,0,1.8-0.5,2.3-1.3l4-6.5
			C390.9,445.3,393.9,445.6,394.8,447.8z"/>
		<path fill="#181818" d="M383.2,469.7c0.6-2.2,0.1-4.6-1.4-6.4l-3.2-3.8l5-0.2c2.3-0.1,4.4-1.3,5.6-3.3l2.6-4.2l1.8,4.7
			c0.8,2.2,2.6,3.8,4.9,4.3l4.8,1.2l-3.9,3.1c-1.8,1.4-2.8,3.7-2.6,6l0.4,5l-4.2-2.7c-0.9-0.6-2-1-3.2-1.1c-1.1-0.1-2.3,0.1-3.3,0.5
			l-4.6,1.9L383.2,469.7z"/>
	</g>
	<g>
		<path fill="#303030" d="M195.5,382.6l0.8,5.5c0.1,0.7,0.5,1.3,1.2,1.6l5,2.5c1.6,0.8,1.6,3,0,3.8l-5,2.5c-0.6,0.3-1,0.9-1.1,1.6
			l-0.8,5.6c-0.2,1.7-2.4,2.4-3.6,1.2l-3.9-4c-0.5-0.5-1.2-0.7-1.9-0.6l-5.5,1c-1.7,0.3-3-1.5-2.2-3l2.6-5c0.3-0.6,0.3-1.3,0-2
			l-2.6-5c-0.8-1.5,0.5-3.3,2.2-3.1l5.5,0.9c0.7,0.1,1.4-0.1,1.9-0.6l3.9-4C193.1,380.2,195.3,380.9,195.5,382.6z"/>
		<path fill="#181818" d="M183.8,396.6c0.8-1.5,0.8-3.3,0-4.8l-1.7-3.2l3.6,0.6c1.7,0.3,3.4-0.3,4.6-1.5l2.6-2.6l0.5,3.6
			c0.3,1.7,1.3,3.1,2.8,3.9l3.3,1.6l-3.3,1.6c-1.5,0.8-2.6,2.2-2.8,3.9l-0.5,3.6l-2.6-2.6c-0.6-0.6-1.3-1-2.1-1.3
			c-0.8-0.3-1.6-0.3-2.5-0.2l-3.6,0.6L183.8,396.6z"/>
	</g>
	<g>
		<path fill="#303030" d="M195.4,321.7L195.4,321.7c-1.3,0-2.4-1.1-2.4-2.4v-20.4c0-1.3,1.1-2.4,2.4-2.4l0,0c1.3,0,2.4,1.1,2.4,2.4
			v20.4C197.8,320.6,196.7,321.7,195.4,321.7z"/>
		<path fill="#303030" d="M208,309L208,309c0,1.3-1.1,2.4-2.4,2.4h-20.4c-1.3,0-2.4-1.1-2.4-2.4l0,0c0-1.3,1.1-2.4,2.4-2.4h20.4
			C206.9,306.6,208,307.7,208,309z"/>
	</g>
	<g>
		<path fill="#303030" d="M366.2,449.8L366.2,449.8c-0.9,0-1.6-0.7-1.6-1.6v-13.7c0-0.9,0.7-1.6,1.6-1.6l0,0c0.9,0,1.6,0.7,1.6,1.6
			v13.7C367.8,449,367.1,449.8,366.2,449.8z"/>
		<path fill="#303030" d="M374.7,441.3L374.7,441.3c0,0.9-0.7,1.6-1.6,1.6h-13.7c-0.9,0-1.6-0.7-1.6-1.6l0,0c0-0.9,0.7-1.6,1.6-1.6
			H373C373.9,439.7,374.7,440.4,374.7,441.3z"/>
	</g>
	<g>
		<path fill="#303030" d="M397.5,435.9h-1.6c-1.3,0-2.4-1.1-2.4-2.4v-28.8c0-1.3,1.1-2.4,2.4-2.4h1.6c1.3,0,2.4,1.1,2.4,2.4v28.8
			C399.9,434.8,398.8,435.9,397.5,435.9z"/>
		<path fill="#303030" d="M413.5,418.3v1.6c0,1.3-1.1,2.4-2.4,2.4h-28.8c-1.3,0-2.4-1.1-2.4-2.4v-1.6c0-1.3,1.1-2.4,2.4-2.4H411
			C412.4,415.9,413.5,417,413.5,418.3z"/>
	</g>
	<g>
		<rect x="281.3" y="464.8" fill="#FEC40D" width="34.8" height="4.7"/>
	</g>
</g>
</svg>
